# xmcd
#
# Track frame offsets: 
#        150
#        26136
#        60156
#        77595
#        105118
#        129873
#        190829
#        215952
#        244751
#
# Disc length: 3536 seconds
#
# Revision: 0
# Processed by: cddbd v1.5.1PL0 Copyright (c) Steve Scherf et al.
# Submitted via: ExactAudioCopy v0.95b3
#
DISCID=6c0dce09
DTITLE=Tom Waits - God Is Kommezuspadt - Antwerpen CD 1
DYEAR=2004
DGENRE=Alternative
TTITLE0=Make It Rain
TTITLE1=Don't Go Into That Barn
TTITLE2=Walk Away
TTITLE3=Lost At The Bottom Of The World
TTITLE4=Hoist That Rag
TTITLE5=Sins Of My Father
TTITLE6=(Story Of Johnny Egg) Table Top Joe
TTITLE7=Dead And Lovely
TTITLE8=God's Way On Buisiness
EXTD=
EXTT0=
EXTT1=
EXTT2=
EXTT3=
EXTT4=
EXTT5=
EXTT6=
EXTT7=
EXTT8=
PLAYORDER=
